<svg width="313" height="90" viewBox="0 0 313 90" fill="none" xmlns="http://www.w3.org/2000/svg">
<path d="M106.5 9H107V82H106.5C86.3416 82 70 65.6584 70 45.5C70 25.3416 86.3416 9 106.5 9Z" stroke="#FFE600" stroke-width="2"/>
<path d="M115 89H114V1H115C139.301 1 159 20.6995 159 45C159 69.3005 139.301 89 115 89Z" stroke="#FFE600" stroke-width="2"/>
<path d="M12.4102 45.9629H5.57227V43.2031H12.4102C13.7344 43.2031 14.8066 42.9922 15.627 42.5703C16.4473 42.1484 17.0449 41.5625 17.4199 40.8125C17.8066 40.0625 18 39.207 18 38.2461C18 37.3672 17.8066 36.541 17.4199 35.7676C17.0449 34.9941 16.4473 34.373 15.627 33.9043C14.8066 33.4238 13.7344 33.1836 12.4102 33.1836H6.36328V56H2.9707V30.4062H12.4102C14.3438 30.4062 15.9785 30.7402 17.3145 31.4082C18.6504 32.0762 19.6641 33.002 20.3555 34.1855C21.0469 35.3574 21.3926 36.6992 21.3926 38.2109C21.3926 39.8516 21.0469 41.252 20.3555 42.4121C19.6641 43.5723 18.6504 44.457 17.3145 45.0664C15.9785 45.6641 14.3438 45.9629 12.4102 45.9629ZM32.7305 32.6738L24.2578 56H20.7949L30.5508 30.4062H32.7832L32.7305 32.6738ZM39.832 56L31.3418 32.6738L31.2891 30.4062H33.5215L43.3125 56H39.832ZM39.3926 46.5254V49.3027H25.0137V46.5254H39.3926ZM46.2656 30.4062L52.9102 43.2559L59.5723 30.4062H63.4219L54.5977 46.4375V56H51.2051V46.4375L42.3809 30.4062H46.2656Z" fill="white"/>
<path d="M5.57227 45.9629H4.57227V46.9629H5.57227V45.9629ZM5.57227 43.2031V42.2031H4.57227V43.2031H5.57227ZM17.4199 40.8125L16.531 40.3542L16.5255 40.3653L17.4199 40.8125ZM17.4199 35.7676L16.52 36.2039L16.5255 36.2148L17.4199 35.7676ZM15.627 33.9043L15.1215 34.7672L15.1308 34.7725L15.627 33.9043ZM6.36328 33.1836V32.1836H5.36328V33.1836H6.36328ZM6.36328 56V57H7.36328V56H6.36328ZM2.9707 56H1.9707V57H2.9707V56ZM2.9707 30.4062V29.4062H1.9707V30.4062H2.9707ZM20.3555 34.1855L19.492 34.69L19.4942 34.6937L20.3555 34.1855ZM17.3145 45.0664L17.7228 45.9792L17.7295 45.9762L17.3145 45.0664ZM12.4102 44.9629H5.57227V46.9629H12.4102V44.9629ZM6.57227 45.9629V43.2031H4.57227V45.9629H6.57227ZM5.57227 44.2031H12.4102V42.2031H5.57227V44.2031ZM12.4102 44.2031C13.8288 44.2031 15.0745 43.9789 16.0843 43.4596L15.1696 41.681C14.5388 42.0054 13.6399 42.2031 12.4102 42.2031V44.2031ZM16.0843 43.4596C17.0737 42.9508 17.8348 42.2189 18.3143 41.2597L16.5255 40.3653C16.2551 40.9061 15.8209 41.3461 15.1696 41.681L16.0843 43.4596ZM18.3087 41.2708C18.7781 40.3605 19 39.3442 19 38.2461H17C17 39.0699 16.8352 39.7645 16.5311 40.3542L18.3087 41.2708ZM19 38.2461C19 37.2146 18.7717 36.235 18.3143 35.3204L16.5255 36.2148C16.8416 36.847 17 37.5198 17 38.2461H19ZM18.3197 35.3313C17.8481 34.3586 17.1003 33.5945 16.1231 33.0361L15.1308 34.7725C15.7942 35.1516 16.2417 35.6297 16.5201 36.2039L18.3197 35.3313ZM16.1324 33.0414C15.11 32.4426 13.8455 32.1836 12.4102 32.1836V34.1836C13.6233 34.1836 14.5032 34.405 15.1215 34.7672L16.1324 33.0414ZM12.4102 32.1836H6.36328V34.1836H12.4102V32.1836ZM5.36328 33.1836V56H7.36328V33.1836H5.36328ZM6.36328 55H2.9707V57H6.36328V55ZM3.9707 56V30.4062H1.9707V56H3.9707ZM2.9707 31.4062H12.4102V29.4062H2.9707V31.4062ZM12.4102 31.4062C14.2327 31.4062 15.7049 31.7215 16.8672 32.3026L17.7617 30.5138C16.2521 29.759 14.4548 29.4062 12.4102 29.4062V31.4062ZM16.8672 32.3026C18.0457 32.8919 18.9073 33.689 19.492 34.6899L21.2189 33.6811C20.4208 32.3149 19.2551 31.2605 17.7617 30.5138L16.8672 32.3026ZM19.4942 34.6937C20.085 35.695 20.3926 36.8576 20.3926 38.2109H22.3926C22.3926 36.5408 22.0088 35.0199 21.2167 33.6774L19.4942 34.6937ZM20.3926 38.2109C20.3926 39.71 20.0776 40.925 19.4964 41.9002L21.2145 42.9241C22.0161 41.5789 22.3926 39.9931 22.3926 38.2109H20.3926ZM19.4964 41.9002C18.9183 42.8703 18.0673 43.6239 16.8994 44.1566L17.7295 45.9762C19.2335 45.2902 20.4098 44.2742 21.2145 42.9241L19.4964 41.9002ZM16.9061 44.1536C15.7328 44.6785 14.2461 44.9629 12.4102 44.9629V46.9629C14.4414 46.9629 16.2242 46.6497 17.7228 45.9792L16.9061 44.1536ZM32.7305 32.6738L33.6704 33.0152L33.7264 32.8611L33.7302 32.6971L32.7305 32.6738ZM24.2578 56V57H24.9585L25.1977 56.3414L24.2578 56ZM20.7949 56L19.8605 55.6438L19.3436 57H20.7949V56ZM30.5508 30.4062V29.4062H29.8618L29.6164 30.0501L30.5508 30.4062ZM32.7832 30.4062L33.7829 30.4295L33.8067 29.4062H32.7832V30.4062ZM39.832 56L38.8923 56.342L39.1318 57H39.832V56ZM31.3418 32.6738L30.3421 32.6971L30.3459 32.8614L30.4021 33.0159L31.3418 32.6738ZM31.2891 30.4062V29.4062H30.2655L30.2893 30.4295L31.2891 30.4062ZM33.5215 30.4062L34.4555 30.0489L34.2096 29.4062H33.5215V30.4062ZM43.3125 56V57H44.7657L44.2465 55.6427L43.3125 56ZM39.3926 46.5254H40.3926V45.5254H39.3926V46.5254ZM39.3926 49.3027V50.3027H40.3926V49.3027H39.3926ZM25.0137 49.3027H24.0137V50.3027H25.0137V49.3027ZM25.0137 46.5254V45.5254H24.0137V46.5254H25.0137ZM31.7906 32.3324L23.3179 55.6586L25.1977 56.3414L33.6704 33.0152L31.7906 32.3324ZM24.2578 55H20.7949V57H24.2578V55ZM21.7293 56.3562L31.4852 30.7624L29.6164 30.0501L19.8605 55.6438L21.7293 56.3562ZM30.5508 31.4062H32.7832V29.4062H30.5508V31.4062ZM31.7835 30.383L31.7307 32.6506L33.7302 32.6971L33.7829 30.4295L31.7835 30.383ZM40.7717 55.658L32.2815 32.3318L30.4021 33.0159L38.8923 56.342L40.7717 55.658ZM32.3415 32.6506L32.2888 30.383L30.2893 30.4295L30.3421 32.6971L32.3415 32.6506ZM31.2891 31.4062H33.5215V29.4062H31.2891V31.4062ZM32.5875 30.7636L42.3785 56.3573L44.2465 55.6427L34.4555 30.0489L32.5875 30.7636ZM43.3125 55H39.832V57H43.3125V55ZM38.3926 46.5254V49.3027H40.3926V46.5254H38.3926ZM39.3926 48.3027H25.0137V50.3027H39.3926V48.3027ZM26.0137 49.3027V46.5254H24.0137V49.3027H26.0137ZM25.0137 47.5254H39.3926V45.5254H25.0137V47.5254ZM46.2656 30.4062L47.1539 29.9469L46.8743 29.4062H46.2656V30.4062ZM52.9102 43.2559L52.0219 43.7152L52.909 45.4307L53.7979 43.7161L52.9102 43.2559ZM59.5723 30.4062V29.4062H58.9643L58.6845 29.946L59.5723 30.4062ZM63.4219 30.4062L64.2979 30.8885L65.1138 29.4062H63.4219V30.4062ZM54.5977 46.4375L53.7216 45.9553L53.5977 46.1805V46.4375H54.5977ZM54.5977 56V57H55.5977V56H54.5977ZM51.2051 56H50.2051V57H51.2051V56ZM51.2051 46.4375H52.2051V46.1805L52.0811 45.9553L51.2051 46.4375ZM42.3809 30.4062V29.4062H40.6889L41.5048 30.8885L42.3809 30.4062ZM45.3774 30.8656L52.0219 43.7152L53.7984 42.7965L47.1539 29.9469L45.3774 30.8656ZM53.7979 43.7161L60.46 30.8665L58.6845 29.946L52.0224 42.7956L53.7979 43.7161ZM59.5723 31.4062H63.4219V29.4062H59.5723V31.4062ZM62.5458 29.924L53.7216 45.9553L55.4737 46.9197L64.2979 30.8885L62.5458 29.924ZM53.5977 46.4375V56H55.5977V46.4375H53.5977ZM54.5977 55H51.2051V57H54.5977V55ZM52.2051 56V46.4375H50.2051V56H52.2051ZM52.0811 45.9553L43.2569 29.924L41.5048 30.8885L50.329 46.9197L52.0811 45.9553ZM42.3809 31.4062H46.2656V29.4062H42.3809V31.4062Z" fill="white"/>
<path d="M177.094 44.0293H170.607L170.572 41.3047H176.461C177.434 41.3047 178.283 41.1406 179.01 40.8125C179.736 40.4844 180.299 40.0156 180.697 39.4062C181.107 38.7852 181.312 38.0469 181.312 37.1914C181.312 36.2539 181.131 35.4922 180.768 34.9062C180.416 34.3086 179.871 33.875 179.133 33.6055C178.406 33.3242 177.48 33.1836 176.355 33.1836H171.363V56H167.971V30.4062H176.355C177.668 30.4062 178.84 30.541 179.871 30.8105C180.902 31.0684 181.775 31.4785 182.49 32.041C183.217 32.5918 183.768 33.2949 184.143 34.1504C184.518 35.0059 184.705 36.0312 184.705 37.2266C184.705 38.2812 184.436 39.2363 183.896 40.0918C183.357 40.9355 182.607 41.627 181.646 42.166C180.697 42.7051 179.584 43.0508 178.307 43.2031L177.094 44.0293ZM176.936 56H169.271L171.188 53.2402H176.936C178.014 53.2402 178.928 53.0527 179.678 52.6777C180.439 52.3027 181.02 51.7754 181.418 51.0957C181.816 50.4043 182.016 49.5898 182.016 48.6523C182.016 47.7031 181.846 46.8828 181.506 46.1914C181.166 45.5 180.633 44.9668 179.906 44.5918C179.18 44.2168 178.242 44.0293 177.094 44.0293H172.26L172.295 41.3047H178.904L179.625 42.2891C180.855 42.3945 181.898 42.7461 182.754 43.3438C183.609 43.9297 184.26 44.6797 184.705 45.5938C185.162 46.5078 185.391 47.5156 185.391 48.6172C185.391 50.2109 185.039 51.5586 184.336 52.6602C183.645 53.75 182.666 54.582 181.4 55.1562C180.135 55.7188 178.646 56 176.936 56ZM194.039 30.4062V56H190.646V30.4062H194.039ZM215.73 53.2402V56H202.934V53.2402H215.73ZM203.602 30.4062V56H200.209V30.4062H203.602ZM235.137 53.2402V56H222.34V53.2402H235.137ZM223.008 30.4062V56H219.615V30.4062H223.008ZM252.662 49.5312C252.662 48.9336 252.568 48.4062 252.381 47.9492C252.205 47.4805 251.889 47.0586 251.432 46.6836C250.986 46.3086 250.365 45.9512 249.568 45.6113C248.783 45.2715 247.787 44.9258 246.58 44.5742C245.314 44.1992 244.172 43.7832 243.152 43.3262C242.133 42.8574 241.26 42.3242 240.533 41.7266C239.807 41.1289 239.25 40.4434 238.863 39.6699C238.477 38.8965 238.283 38.0117 238.283 37.0156C238.283 36.0195 238.488 35.0996 238.898 34.2559C239.309 33.4121 239.895 32.6797 240.656 32.0586C241.43 31.4258 242.35 30.9336 243.416 30.582C244.482 30.2305 245.672 30.0547 246.984 30.0547C248.906 30.0547 250.535 30.4238 251.871 31.1621C253.219 31.8887 254.244 32.8438 254.947 34.0273C255.65 35.1992 256.002 36.4531 256.002 37.7891H252.627C252.627 36.8281 252.422 35.9785 252.012 35.2402C251.602 34.4902 250.98 33.9043 250.148 33.4824C249.316 33.0488 248.262 32.832 246.984 32.832C245.777 32.832 244.781 33.0137 243.996 33.377C243.211 33.7402 242.625 34.2324 242.238 34.8535C241.863 35.4746 241.676 36.1836 241.676 36.9805C241.676 37.5195 241.787 38.0117 242.01 38.457C242.244 38.8906 242.602 39.2949 243.082 39.6699C243.574 40.0449 244.195 40.3906 244.945 40.707C245.707 41.0234 246.615 41.3281 247.67 41.6211C249.123 42.0312 250.377 42.4883 251.432 42.9922C252.486 43.4961 253.354 44.0645 254.033 44.6973C254.725 45.3184 255.234 46.0273 255.562 46.8242C255.902 47.6094 256.072 48.5 256.072 49.4961C256.072 50.5391 255.861 51.4824 255.439 52.3262C255.018 53.1699 254.414 53.8906 253.629 54.4883C252.844 55.0859 251.9 55.5488 250.799 55.877C249.709 56.1934 248.49 56.3516 247.143 56.3516C245.959 56.3516 244.793 56.1875 243.645 55.8594C242.508 55.5312 241.471 55.0391 240.533 54.3828C239.607 53.7266 238.863 52.918 238.301 51.957C237.75 50.9844 237.475 49.8594 237.475 48.582H240.85C240.85 49.4609 241.02 50.2168 241.359 50.8496C241.699 51.4707 242.162 51.9863 242.748 52.3965C243.346 52.8066 244.02 53.1113 244.77 53.3105C245.531 53.498 246.322 53.5918 247.143 53.5918C248.326 53.5918 249.328 53.4277 250.148 53.0996C250.969 52.7715 251.59 52.3027 252.012 51.6934C252.445 51.084 252.662 50.3633 252.662 49.5312Z" fill="white"/>
<path d="M177.094 44.0293V45.0293H177.402L177.657 44.8558L177.094 44.0293ZM170.607 44.0293L169.608 44.0422L169.62 45.0293H170.607V44.0293ZM170.572 41.3047V40.3047H169.559L169.572 41.3176L170.572 41.3047ZM180.697 39.4062L179.863 38.8552L179.86 38.859L180.697 39.4062ZM180.768 34.9062L179.906 35.4133L179.912 35.4233L179.918 35.4332L180.768 34.9062ZM179.133 33.6055L178.772 34.538L178.781 34.5415L178.79 34.5448L179.133 33.6055ZM171.363 33.1836V32.1836H170.363V33.1836H171.363ZM171.363 56V57H172.363V56H171.363ZM167.971 56H166.971V57H167.971V56ZM167.971 30.4062V29.4062H166.971V30.4062H167.971ZM179.871 30.8105L179.618 31.7781L179.629 31.7807L179.871 30.8105ZM182.49 32.041L181.872 32.8269L181.879 32.8325L181.886 32.8379L182.49 32.041ZM183.896 40.0918L184.739 40.6302L184.743 40.6249L183.896 40.0918ZM181.646 42.166L181.157 41.2939L181.153 41.2965L181.646 42.166ZM178.307 43.2031L178.188 42.2102L177.946 42.2391L177.744 42.3766L178.307 43.2031ZM169.271 56L168.45 55.4297L167.36 57H169.271V56ZM171.188 53.2402V52.2402H170.664L170.366 52.6699L171.188 53.2402ZM179.678 52.6777L179.236 51.7805L179.231 51.7833L179.678 52.6777ZM181.418 51.0957L182.281 51.6014L182.284 51.595L181.418 51.0957ZM172.26 44.0293L171.26 44.0164L171.247 45.0293H172.26V44.0293ZM172.295 41.3047V40.3047H171.308L171.295 41.2918L172.295 41.3047ZM178.904 41.3047L179.711 40.7139L179.412 40.3047H178.904V41.3047ZM179.625 42.2891L178.818 42.8798L179.087 43.2466L179.54 43.2854L179.625 42.2891ZM182.754 43.3438L182.181 44.1635L182.189 44.1688L182.754 43.3438ZM184.705 45.5938L183.806 46.0317L183.811 46.041L184.705 45.5938ZM184.336 52.6602L183.493 52.1221L183.492 52.1245L184.336 52.6602ZM181.4 55.1562L181.807 56.0701L181.814 56.0669L181.4 55.1562ZM177.094 43.0293H170.607V45.0293H177.094V43.0293ZM171.607 44.0164L171.572 41.2918L169.572 41.3176L169.608 44.0422L171.607 44.0164ZM170.572 42.3047H176.461V40.3047H170.572V42.3047ZM176.461 42.3047C177.545 42.3047 178.54 42.1218 179.421 41.7239L178.598 39.9011C178.026 40.1595 177.322 40.3047 176.461 40.3047V42.3047ZM179.421 41.7239C180.304 41.3251 181.022 40.7373 181.534 39.9535L179.86 38.859C179.576 39.294 179.168 39.6437 178.598 39.9011L179.421 41.7239ZM181.532 39.9573C182.065 39.1493 182.312 38.2127 182.312 37.1914H180.312C180.312 37.881 180.15 38.421 179.863 38.8552L181.532 39.9573ZM182.312 37.1914C182.312 36.1325 182.108 35.1707 181.617 34.3793L179.918 35.4332C180.154 35.8136 180.312 36.3754 180.312 37.1914H182.312ZM181.63 34.3992C181.145 33.5751 180.401 33.004 179.476 32.6661L178.79 34.5448C179.341 34.746 179.687 35.0421 179.906 35.4133L181.63 34.3992ZM179.494 32.6729C178.613 32.332 177.554 32.1836 176.355 32.1836V34.1836C177.407 34.1836 178.199 34.3165 178.772 34.538L179.494 32.6729ZM176.355 32.1836H171.363V34.1836H176.355V32.1836ZM170.363 33.1836V56H172.363V33.1836H170.363ZM171.363 55H167.971V57H171.363V55ZM168.971 56V30.4062H166.971V56H168.971ZM167.971 31.4062H176.355V29.4062H167.971V31.4062ZM176.355 31.4062C177.601 31.4062 178.686 31.5344 179.618 31.778L180.124 29.843C178.994 29.5476 177.734 29.4062 176.355 29.4062V31.4062ZM179.629 31.7807C180.546 32.01 181.285 32.3651 181.872 32.8269L183.109 31.2551C182.266 30.5919 181.259 30.1267 180.114 29.8404L179.629 31.7807ZM181.886 32.8379C182.473 33.283 182.918 33.8486 183.227 34.5519L185.058 33.7489C184.617 32.7412 183.96 31.9006 183.094 31.2441L181.886 32.8379ZM183.227 34.5519C183.533 35.2507 183.705 36.1323 183.705 37.2266H185.705C185.705 35.9302 185.502 34.7611 185.058 33.7489L183.227 34.5519ZM183.705 37.2266C183.705 38.1011 183.484 38.8699 183.05 39.5587L184.743 40.6249C185.387 39.6028 185.705 38.4614 185.705 37.2266H183.705ZM183.054 39.5534C182.612 40.245 181.989 40.827 181.157 41.2939L182.136 43.0382C183.225 42.4269 184.103 41.6261 184.739 40.6302L183.054 39.5534ZM181.153 41.2965C180.338 41.7592 179.357 42.0708 178.188 42.2102L178.425 44.1961C179.811 44.0308 181.057 43.651 182.14 43.0356L181.153 41.2965ZM177.744 42.3766L176.531 43.2028L177.657 44.8558L178.87 44.0296L177.744 42.3766ZM176.936 55H169.271V57H176.936V55ZM170.093 56.5703L172.009 53.8105L170.366 52.6699L168.45 55.4297L170.093 56.5703ZM171.188 54.2402H176.936V52.2402H171.188V54.2402ZM176.936 54.2402C178.126 54.2402 179.202 54.0335 180.125 53.5722L179.231 51.7833C178.653 52.0719 177.901 52.2402 176.936 52.2402V54.2402ZM180.119 53.5749C181.042 53.1205 181.775 52.4632 182.281 51.6014L180.555 50.59C180.264 51.0876 179.836 51.485 179.236 51.7806L180.119 53.5749ZM182.284 51.595C182.785 50.7271 183.016 49.7342 183.016 48.6523H181.016C181.016 49.4454 180.848 50.0815 180.552 50.5964L182.284 51.595ZM183.016 48.6523C183.016 47.585 182.824 46.6071 182.403 45.7503L180.608 46.6325C180.867 47.1585 181.016 47.8213 181.016 48.6523H183.016ZM182.403 45.7503C181.963 44.8544 181.269 44.1701 180.365 43.7032L179.448 45.4804C179.996 45.7635 180.369 46.1456 180.608 46.6325L182.403 45.7503ZM180.365 43.7032C179.451 43.2315 178.341 43.0293 177.094 43.0293V45.0293C178.143 45.0293 178.908 45.2021 179.448 45.4804L180.365 43.7032ZM177.094 43.0293H172.26V45.0293H177.094V43.0293ZM173.26 44.0422L173.295 41.3176L171.295 41.2918L171.26 44.0164L173.26 44.0422ZM172.295 42.3047H178.904V40.3047H172.295V42.3047ZM178.097 41.8954L178.818 42.8798L180.432 41.6983L179.711 40.7139L178.097 41.8954ZM179.54 43.2854C180.627 43.3786 181.494 43.6836 182.181 44.1635L183.327 42.524C182.303 41.8086 181.084 41.4104 179.71 41.2927L179.54 43.2854ZM182.189 44.1688C182.904 44.6588 183.438 45.2766 183.806 46.0317L185.604 45.1558C185.081 44.0828 184.314 43.2005 183.319 42.5187L182.189 44.1688ZM183.811 46.041C184.193 46.8055 184.391 47.6585 184.391 48.6172H186.391C186.391 47.3727 186.131 46.2101 185.6 45.1465L183.811 46.041ZM184.391 48.6172C184.391 50.0624 184.073 51.2134 183.493 52.1221L185.179 53.1982C186.005 51.9038 186.391 50.3595 186.391 48.6172H184.391ZM183.492 52.1245C182.912 53.0373 182.09 53.7453 180.987 54.2456L181.814 56.0669C183.242 55.4188 184.377 54.4627 185.18 53.1959L183.492 52.1245ZM180.994 54.2424C179.883 54.7364 178.539 55 176.936 55V57C178.754 57 180.387 56.7011 181.807 56.0701L180.994 54.2424ZM194.039 30.4062H195.039V29.4062H194.039V30.4062ZM194.039 56V57H195.039V56H194.039ZM190.646 56H189.646V57H190.646V56ZM190.646 30.4062V29.4062H189.646V30.4062H190.646ZM193.039 30.4062V56H195.039V30.4062H193.039ZM194.039 55H190.646V57H194.039V55ZM191.646 56V30.4062H189.646V56H191.646ZM190.646 31.4062H194.039V29.4062H190.646V31.4062ZM215.73 53.2402H216.73V52.2402H215.73V53.2402ZM215.73 56V57H216.73V56H215.73ZM202.934 56H201.934V57H202.934V56ZM202.934 53.2402V52.2402H201.934V53.2402H202.934ZM203.602 30.4062H204.602V29.4062H203.602V30.4062ZM203.602 56V57H204.602V56H203.602ZM200.209 56H199.209V57H200.209V56ZM200.209 30.4062V29.4062H199.209V30.4062H200.209ZM214.73 53.2402V56H216.73V53.2402H214.73ZM215.73 55H202.934V57H215.73V55ZM203.934 56V53.2402H201.934V56H203.934ZM202.934 54.2402H215.73V52.2402H202.934V54.2402ZM202.602 30.4062V56H204.602V30.4062H202.602ZM203.602 55H200.209V57H203.602V55ZM201.209 56V30.4062H199.209V56H201.209ZM200.209 31.4062H203.602V29.4062H200.209V31.4062ZM235.137 53.2402H236.137V52.2402H235.137V53.2402ZM235.137 56V57H236.137V56H235.137ZM222.34 56H221.34V57H222.34V56ZM222.34 53.2402V52.2402H221.34V53.2402H222.34ZM223.008 30.4062H224.008V29.4062H223.008V30.4062ZM223.008 56V57H224.008V56H223.008ZM219.615 56H218.615V57H219.615V56ZM219.615 30.4062V29.4062H218.615V30.4062H219.615ZM234.137 53.2402V56H236.137V53.2402H234.137ZM235.137 55H222.34V57H235.137V55ZM223.34 56V53.2402H221.34V56H223.34ZM222.34 54.2402H235.137V52.2402H222.34V54.2402ZM222.008 30.4062V56H224.008V30.4062H222.008ZM223.008 55H219.615V57H223.008V55ZM220.615 56V30.4062H218.615V56H220.615ZM219.615 31.4062H223.008V29.4062H219.615V31.4062ZM252.381 47.9492L251.445 48.3003L251.45 48.3146L251.456 48.3288L252.381 47.9492ZM251.432 46.6836L250.787 47.4486L250.797 47.4567L251.432 46.6836ZM249.568 45.6113L249.171 46.5291L249.176 46.5312L249.568 45.6113ZM246.58 44.5742L246.296 45.533L246.3 45.5343L246.58 44.5742ZM243.152 43.3262L242.735 44.2348L242.743 44.2387L243.152 43.3262ZM240.656 32.0586L241.288 32.8336L241.289 32.8326L240.656 32.0586ZM251.871 31.1621L251.387 32.0374L251.397 32.0423L251.871 31.1621ZM254.947 34.0273L254.088 34.5381L254.09 34.5418L254.947 34.0273ZM256.002 37.7891V38.7891H257.002V37.7891H256.002ZM252.627 37.7891H251.627V38.7891H252.627V37.7891ZM252.012 35.2402L251.134 35.7201L251.138 35.7259L252.012 35.2402ZM250.148 33.4824L249.686 34.3693L249.696 34.3743L250.148 33.4824ZM242.238 34.8535L241.389 34.3249L241.382 34.3366L242.238 34.8535ZM242.01 38.457L241.115 38.9042L241.122 38.9185L241.13 38.9325L242.01 38.457ZM243.082 39.6699L242.467 40.4583L242.476 40.4654L243.082 39.6699ZM244.945 40.707L244.557 41.6284L244.562 41.6305L244.945 40.707ZM247.67 41.6211L247.942 40.6587L247.938 40.6576L247.67 41.6211ZM254.033 44.6973L253.352 45.4292L253.358 45.4352L253.365 45.4412L254.033 44.6973ZM255.562 46.8242L254.638 47.205L254.641 47.2132L254.645 47.2214L255.562 46.8242ZM250.799 55.877L251.078 56.8373L251.084 56.8353L250.799 55.877ZM243.645 55.8594L243.367 56.8202L243.37 56.8209L243.645 55.8594ZM240.533 54.3828L239.955 55.1986L239.96 55.202L240.533 54.3828ZM238.301 51.957L237.431 52.4498L237.434 52.456L237.438 52.4622L238.301 51.957ZM237.475 48.582V47.582H236.475V48.582H237.475ZM240.85 48.582H241.85V47.582H240.85V48.582ZM241.359 50.8496L240.478 51.3228L240.482 51.3296L241.359 50.8496ZM242.748 52.3965L242.175 53.2158L242.182 53.221L242.748 52.3965ZM244.77 53.3105L244.513 54.277L244.522 54.2794L244.531 54.2816L244.77 53.3105ZM252.012 51.6934L251.197 51.1136L251.19 51.1241L252.012 51.6934ZM253.662 49.5312C253.662 48.8301 253.552 48.1696 253.306 47.5697L251.456 48.3288C251.585 48.6429 251.662 49.0371 251.662 49.5312H253.662ZM253.317 47.5981C253.069 46.937 252.634 46.3768 252.066 45.9105L250.797 47.4567C251.143 47.7404 251.341 48.024 251.445 48.3003L253.317 47.5981ZM252.076 45.9187C251.527 45.4569 250.809 45.0532 249.961 44.6915L249.176 46.5312C249.922 46.8492 250.445 47.1603 250.788 47.4485L252.076 45.9187ZM249.966 44.6936C249.129 44.3315 248.09 43.9725 246.86 43.6141L246.3 45.5343C247.484 45.8791 248.437 46.2115 249.171 46.5291L249.966 44.6936ZM246.864 43.6154C245.634 43.2509 244.534 42.8496 243.561 42.4137L242.743 44.2387C243.81 44.7168 244.995 45.1476 246.296 45.533L246.864 43.6154ZM243.57 42.4176C242.614 41.9781 241.817 41.4881 241.168 40.9543L239.898 42.4989C240.702 43.1604 241.652 43.7368 242.735 44.2347L243.57 42.4176ZM241.168 40.9543C240.54 40.4377 240.076 39.8601 239.758 39.2227L237.969 40.1171C238.424 41.0266 239.073 41.8201 239.898 42.4989L241.168 40.9543ZM239.758 39.2227C239.45 38.6078 239.283 37.8801 239.283 37.0156H237.283C237.283 38.1433 237.503 39.1851 237.969 40.1171L239.758 39.2227ZM239.283 37.0156C239.283 36.1614 239.458 35.3922 239.798 34.6931L237.999 33.8187C237.519 34.807 237.283 35.8776 237.283 37.0156H239.283ZM239.798 34.6931C240.141 33.9862 240.634 33.3673 241.288 32.8336L240.024 31.2836C239.155 31.992 238.476 32.838 237.999 33.8187L239.798 34.6931ZM241.289 32.8326C241.957 32.2865 242.765 31.8496 243.729 31.5318L243.103 29.6323C241.934 30.0176 240.902 30.5651 240.023 31.2846L241.289 32.8326ZM243.729 31.5318C244.679 31.2186 245.761 31.0547 246.984 31.0547V29.0547C245.583 29.0547 244.286 29.2424 243.103 29.6323L243.729 31.5318ZM246.984 31.0547C248.78 31.0547 250.233 31.3995 251.387 32.0374L252.355 30.2869C250.837 29.4482 249.032 29.0547 246.984 29.0547V31.0547ZM251.397 32.0423C252.603 32.6928 253.487 33.5273 254.088 34.5381L255.807 33.5166C255.001 32.1602 253.834 31.0845 252.346 30.2819L251.397 32.0423ZM254.09 34.5418C254.702 35.5621 255.002 36.6387 255.002 37.7891H257.002C257.002 36.2676 256.599 34.8364 255.805 33.5128L254.09 34.5418ZM256.002 36.7891H252.627V38.7891H256.002V36.7891ZM253.627 37.7891C253.627 36.6819 253.389 35.6609 252.886 34.7546L251.138 35.7259C251.454 36.2961 251.627 36.9743 251.627 37.7891H253.627ZM252.889 34.7604C252.373 33.8171 251.596 33.095 250.601 32.5905L249.696 34.3743C250.365 34.7136 250.83 35.1634 251.134 35.72L252.889 34.7604ZM250.611 32.5956C249.594 32.0657 248.367 31.832 246.984 31.832V33.832C248.156 33.832 249.039 34.0319 249.686 34.3692L250.611 32.5956ZM246.984 31.832C245.686 31.832 244.534 32.0261 243.576 32.4694L244.416 34.2845C245.028 34.0012 245.869 33.832 246.984 33.832V31.832ZM243.576 32.4694C242.647 32.8993 241.897 33.5102 241.389 34.325L243.087 35.3821C243.353 34.9547 243.775 34.5812 244.416 34.2845L243.576 32.4694ZM241.382 34.3366C240.904 35.1288 240.676 36.0199 240.676 36.9805H242.676C242.676 36.3473 242.823 35.8204 243.094 35.3704L241.382 34.3366ZM240.676 36.9805C240.676 37.6617 240.818 38.3088 241.115 38.9042L242.904 38.0098C242.757 37.7146 242.676 37.3774 242.676 36.9805H240.676ZM241.13 38.9325C241.444 39.5126 241.903 40.0179 242.467 40.4582L243.697 38.8816C243.301 38.572 243.045 38.2686 242.889 37.9815L241.13 38.9325ZM242.476 40.4654C243.052 40.9044 243.752 41.2889 244.557 41.6284L245.334 39.7857C244.639 39.4923 244.096 39.1855 243.688 38.8745L242.476 40.4654ZM244.562 41.6305C245.371 41.9668 246.32 42.284 247.402 42.5846L247.938 40.6576C246.91 40.3723 246.043 40.0801 245.329 39.7835L244.562 41.6305ZM247.398 42.5835C248.812 42.9824 250.01 43.421 251.001 43.8945L251.863 42.0899C250.744 41.5556 249.435 41.0801 247.942 40.6587L247.398 42.5835ZM251.001 43.8945C251.986 44.3654 252.763 44.8807 253.352 45.4292L254.715 43.9654C253.944 43.2482 252.986 42.6268 251.863 42.0899L251.001 43.8945ZM253.365 45.4412C253.954 45.97 254.371 46.5575 254.638 47.205L256.487 46.4435C256.098 45.4972 255.496 44.6667 254.701 43.9533L253.365 45.4412ZM254.645 47.2214C254.922 47.8623 255.072 48.6144 255.072 49.4961H257.072C257.072 48.3856 256.883 47.3564 256.48 46.427L254.645 47.2214ZM255.072 49.4961C255.072 50.4004 254.89 51.1882 254.545 51.879L256.334 52.7734C256.832 51.7766 257.072 50.6777 257.072 49.4961H255.072ZM254.545 51.879C254.195 52.5797 253.693 53.1831 253.023 53.6926L254.235 55.284C255.136 54.5981 255.84 53.7602 256.334 52.7734L254.545 51.879ZM253.023 53.6926C252.349 54.2062 251.518 54.6193 250.513 54.9186L251.084 56.8353C252.283 56.4783 253.339 55.9657 254.235 55.284L253.023 53.6926ZM250.52 54.9166C249.536 55.2023 248.413 55.3516 247.143 55.3516V57.3516C248.567 57.3516 249.882 57.1844 251.078 56.8373L250.52 54.9166ZM247.143 55.3516C246.053 55.3516 244.979 55.2007 243.919 54.8979L243.37 56.8209C244.607 57.1743 245.865 57.3516 247.143 57.3516V55.3516ZM243.922 54.8986C242.887 54.6 241.951 54.1545 241.107 53.5636L239.96 55.202C240.991 55.9236 242.128 56.4625 243.367 56.8201L243.922 54.8986ZM241.112 53.567C240.299 52.9913 239.653 52.2878 239.164 51.4519L237.438 52.4622C238.073 53.5481 238.916 54.4619 239.955 55.1986L241.112 53.567ZM239.171 51.4643C238.717 50.6623 238.475 49.7117 238.475 48.582H236.475C236.475 50.0071 236.783 51.3065 237.431 52.4498L239.171 51.4643ZM237.475 49.582H240.85V47.582H237.475V49.582ZM239.85 48.582C239.85 49.5895 240.045 50.5154 240.478 51.3227L242.24 50.3765C241.994 49.9182 241.85 49.3323 241.85 48.582H239.85ZM240.482 51.3296C240.897 52.0871 241.464 52.7183 242.175 53.2157L243.322 51.5773C242.86 51.2544 242.502 50.8543 242.237 50.3696L240.482 51.3296ZM242.182 53.221C242.88 53.7002 243.66 54.0506 244.513 54.277L245.026 52.3441C244.379 52.1721 243.811 51.9131 243.314 51.572L242.182 53.221ZM244.531 54.2816C245.374 54.4892 246.245 54.5918 247.143 54.5918V52.5918C246.399 52.5918 245.689 52.5069 245.009 52.3395L244.531 54.2816ZM247.143 54.5918C248.413 54.5918 249.549 54.4165 250.52 54.0281L249.777 52.1711C249.108 52.4389 248.24 52.5918 247.143 52.5918V54.5918ZM250.52 54.0281C251.487 53.6413 252.28 53.0622 252.834 52.2626L251.19 51.1241C250.899 51.5433 250.451 51.9017 249.777 52.1711L250.52 54.0281ZM252.827 52.2731C253.394 51.4755 253.662 50.5466 253.662 49.5312H251.662C251.662 50.1799 251.497 50.6924 251.197 51.1136L252.827 52.2731Z" fill="#FEFEFE"/>
</svg>
